<svg width="512" height="512" viewBox="0 0 512 512" fill="none" xmlns="http://www.w3.org/2000/svg">
  <defs>
    <linearGradient id="g1" x1="88" y1="72" x2="424" y2="432" gradientUnits="userSpaceOnUse">
      <stop stop-color="#5EEAD4"/>
      <stop offset="1" stop-color="#8FB4FF"/>
    </linearGradient>
    <linearGradient id="g2" x1="150" y1="140" x2="360" y2="372" gradientUnits="userSpaceOnUse">
      <stop stop-color="#07111F" stop-opacity="0.12"/>
      <stop offset="1" stop-color="#07111F" stop-opacity="0.68"/>
    </linearGradient>
  </defs>
  <rect x="32" y="32" width="448" height="448" rx="120" fill="url(#g1)"/>
  <rect x="76" y="76" width="360" height="360" rx="96" fill="url(#g2)" stroke="rgba(255,255,255,0.22)" stroke-width="6"/>
  <path d="M256 126C210 126 172 161 172 205C172 248 204 280 255 360C307 280 340 248 340 205C340 161 302 126 256 126Z" fill="white" fill-opacity="0.92"/>
  <circle cx="256" cy="206" r="36" fill="#07111F" fill-opacity="0.85"/>
  <path d="M122 339C160 305 211 287 256 287C301 287 352 305 390 339" stroke="white" stroke-width="20" stroke-linecap="round"/>
  <path d="M140 372C177 343 216 330 256 330C296 330 335 343 372 372" stroke="#07111F" stroke-opacity="0.4" stroke-width="12" stroke-linecap="round"/>
</svg>
